<?xml version="1.0" encoding="UTF-8" standalone="no"?>
<svg
   xmlns:dc="http://purl.org/dc/elements/1.1/"
   xmlns:cc="http://creativecommons.org/ns#"
   xmlns:rdf="http://www.w3.org/1999/02/22-rdf-syntax-ns#"
   xmlns:svg="http://www.w3.org/2000/svg"
   xmlns="http://www.w3.org/2000/svg"
   xmlns:xlink="http://www.w3.org/1999/xlink"
   xmlns:sodipodi="http://sodipodi.sourceforge.net/DTD/sodipodi-0.dtd"
   xmlns:inkscape="http://www.inkscape.org/namespaces/inkscape"
   version="1.1"
   x="0px"
   y="0px"
   viewBox="0 0 100 110.0775"
   enable-background="new 0 0 100 104.062"
   xml:space="preserve"
   id="svg13744"
   inkscape:version="0.91 r13725"
   sodipodi:docname="noun_28051_cc.svg"
   width="100"
   height="110.0775"><metadata
     id="metadata13766"><rdf:RDF><cc:Work
         rdf:about=""><dc:format>image/svg+xml</dc:format><dc:type
           rdf:resource="http://purl.org/dc/dcmitype/StillImage" /><dc:title></dc:title></cc:Work></rdf:RDF></metadata><defs
     id="defs13764" /><sodipodi:namedview
     pagecolor="#ffffff"
     bordercolor="#666666"
     borderopacity="1"
     objecttolerance="10"
     gridtolerance="10"
     guidetolerance="10"
     inkscape:pageopacity="0"
     inkscape:pageshadow="2"
     inkscape:window-width="1271"
     inkscape:window-height="754"
     id="namedview13762"
     showgrid="false"
     inkscape:zoom="2.35"
     inkscape:cx="50"
     inkscape:cy="17.376765"
     inkscape:window-x="0"
     inkscape:window-y="0"
     inkscape:window-maximized="0"
     inkscape:current-layer="svg13744" /><g
     id="g13746"
     transform="translate(0,1.6103516e-6)"><path
       d="m 46.96,56.84 c 10.865,0 19.812,-11.999 20.969,-27.42 0.145,-0.995 0.223,-2.015 0.237,-3.049 l -3.391,3.896 c 1.871,-4.144 -4.794,-14.688 -4.794,-14.688 -11.228,8.121 -27.925,0 -27.925,0 -5.039,1.989 -2.652,16.158 -2.652,16.158 -1.256,-0.877 -2.411,-1.334 -3.351,-1.57 1.386,15.06 10.218,26.673 20.907,26.673 z"
       id="path13748"
       inkscape:connector-curvature="0"
       style="fill:none" /><path
       d="m 91.581,74.455 c 0.134,0 0.266,0.008 0.398,0.011 C 87.102,65.303 77.848,58.824 67.001,57.834 66.874,63.59 58.344,68.235 47.834,68.235 37.325,68.235 28.794,63.589 28.667,57.834 12.593,59.302 0,72.817 0,89.275 c 0,17.438 14.137,17.396 31.576,17.396 l 32.519,0 c 3.247,0 6.379,10e-4 9.326,-0.108 -1.921,-3.189 -3.027,-6.925 -3.027,-10.919 0,-11.703 9.485,-21.189 21.187,-21.189 z"
       id="path13750"
       inkscape:connector-curvature="0" /><path
       d="m 23.075,29.293 c 0.017,0.228 0.037,0.455 0.057,0.682 1.524,17.24 11.61,30.56 23.829,30.56 12.376,0 22.566,-13.667 23.885,-31.232 0.183,-1.261 0.277,-2.554 0.277,-3.869 0,-1.315 -0.095,-2.607 -0.277,-3.869 C 69.074,9.354 59.055,0 46.96,0 34.862,0 24.841,9.36 23.075,21.574 c -0.182,1.258 -0.276,2.548 -0.276,3.859 0,0.534 0.02,1.061 0.05,1.586 0.045,0.768 0.118,1.527 0.226,2.274 z M 32.057,15.58 c 0,0 16.697,8.121 27.925,0 0,0 6.665,10.544 4.794,14.688 l 3.391,-3.896 c -0.015,1.034 -0.093,2.054 -0.237,3.049 -1.159,15.42 -10.105,27.419 -20.97,27.419 -10.689,0 -19.521,-11.613 -20.906,-26.672 0.94,0.236 2.094,0.692 3.351,1.57 -0.001,-0.001 -2.387,-14.17 2.652,-16.158 z"
       id="path13752"
       inkscape:connector-curvature="0" /><path
       d="m 93.519,98.793 c 0.225,-0.386 0.435,-0.788 0.625,-1.212 l -0.625,0 0,1.212 z"
       id="path13754"
       inkscape:connector-curvature="0"
       style="fill:#000000" /><polygon
       points="89.644,97.581 89.644,102.879 89.644,104.062 93.519,104.062 93.519,98.793 93.519,97.581 94.144,97.581 100,97.581 100,93.706 95.311,93.706 93.519,93.706 93.519,87.225 89.644,87.225 89.644,93.706 83.163,93.706 83.163,97.581 "
       id="polygon13756" /></g><rect
     style="opacity:0;fill:#ffffff"
     id="rect13768"
     width="79.238052"
     height="11.915496"
     x="-0.39718321"
     y="94.19017" /><rect
     style="opacity:0;fill:#ffffff"
     id="rect13770"
     width="59.574467"
     height="14.468085"
     x="4.2553191"
     y="93.481758" /><rect
     style="opacity:0;fill:#ffffff"
     id="rect13772"
     width="68.936172"
     height="15.74468"
     x="-0.42553192"
     y="91.779617" /><use
     id="use13774"
     xlink:href="#rect13772"
     x="0"
     y="0"
     width="100%"
     height="100%"
     transform="translate(9.3139941,-4.0743675)" /><use
     id="use13776"
     xlink:href="#rect13772"
     x="0"
     y="0"
     width="100%"
     height="100%"
     transform="translate(13.779855,-6.8556209)" /><use
     id="use13778"
     xlink:href="#rect13772"
     x="0"
     y="0"
     width="100%"
     height="100%"
     transform="translate(17.826736,5.8799336)" /><use
     id="use13780"
     xlink:href="#rect13772"
     x="0"
     y="0"
     width="100%"
     height="100%"
     transform="translate(3.4354012,9.5534546)" /><use
     id="use13782"
     xlink:href="#rect13772"
     x="0"
     y="0"
     width="100%"
     height="100%"
     transform="translate(-1.7257669,11.153504)" /><use
     id="use13784"
     xlink:href="#rect13772"
     x="0"
     y="0"
     width="100%"
     height="100%"
     transform="translate(-4.2092634,13.368544)" /><use
     id="use13786"
     xlink:href="#rect13772"
     x="0"
     y="0"
     width="100%"
     height="100%"
     transform="translate(-6.3354871,-5.1306408)" /><use
     id="use13788"
     xlink:href="#rect13772"
     x="0"
     y="0"
     width="100%"
     height="100%"
     transform="translate(-0.33131484,7.8415396)" /><use
     id="use13790"
     xlink:href="#rect13772"
     x="0"
     y="0"
     width="100%"
     height="100%"
     transform="translate(29.667665,-2.5490198)" /><use
     id="use13792"
     xlink:href="#rect13772"
     x="0"
     y="0"
     width="100%"
     height="100%"
     transform="translate(49.250597,11.499015)" /><use
     id="use13794"
     xlink:href="#rect13772"
     x="0"
     y="0"
     width="100%"
     height="100%"
     transform="translate(40.234931,9.0061326)" /><use
     id="use13796"
     xlink:href="#rect13772"
     x="0"
     y="0"
     width="100%"
     height="100%"
     transform="translate(51.847915,9.0986706)" /><use
     id="use13798"
     xlink:href="#rect13772"
     x="0"
     y="0"
     width="100%"
     height="100%"
     transform="translate(16.508985,-6.7738967)" /><use
     id="use13800"
     xlink:href="#rect13772"
     x="0"
     y="0"
     width="100%"
     height="100%"
     transform="translate(21.742615,-10.190248)" /><use
     id="use13802"
     xlink:href="#rect13772"
     x="0"
     y="0"
     width="100%"
     height="100%"
     transform="translate(4.464615,2.9893136)" /><use
     id="use13804"
     xlink:href="#rect13772"
     x="0"
     y="0"
     width="100%"
     height="100%"
     transform="translate(2.81714,0.32829261)" /><use
     id="use13806"
     xlink:href="#rect13772"
     x="0"
     y="0"
     width="100%"
     height="100%"
     transform="translate(11.541295,-1.2764333)" /><use
     id="use13808"
     xlink:href="#rect13772"
     x="0"
     y="0"
     width="100%"
     height="100%"
     transform="translate(14.957811,7.2479196)" /><use
     id="use13810"
     xlink:href="#rect13772"
     x="0"
     y="0"
     width="100%"
     height="100%"
     transform="translate(13.86087,4.9031776)" /><use
     id="use13812"
     xlink:href="#rect13772"
     x="0"
     y="0"
     width="100%"
     height="100%"
     transform="translate(24.159601,-12.417752)" /><use
     id="use13814"
     xlink:href="#rect13772"
     x="0"
     y="0"
     width="100%"
     height="100%"
     transform="translate(15.510715,0.54881861)" /><use
     id="use13816"
     xlink:href="#rect13772"
     x="0"
     y="0"
     width="100%"
     height="100%"
     transform="translate(31.490145,-2.875406)" /><use
     id="use13818"
     xlink:href="#rect13772"
     x="0"
     y="0"
     width="100%"
     height="100%"
     transform="translate(-9.9634879,-2.4064039)" /><use
     id="use13820"
     xlink:href="#rect13772"
     x="0"
     y="0"
     width="100%"
     height="100%"
     transform="translate(-8.592579,-2.6747966)" /><use
     id="use13822"
     xlink:href="#rect13772"
     x="0"
     y="0"
     width="100%"
     height="100%"
     transform="translate(14.212334,1.5662396)" /><use
     id="use13824"
     xlink:href="#rect13772"
     x="0"
     y="0"
     width="100%"
     height="100%"
     transform="translate(43.601754,1.8843486)" /><use
     id="use13826"
     xlink:href="#rect13772"
     x="0"
     y="0"
     width="100%"
     height="100%"
     transform="translate(36.761272,-2.8356999)" /><use
     id="use13828"
     xlink:href="#rect13772"
     x="0"
     y="0"
     width="100%"
     height="100%"
     transform="translate(31.8214,-9.1117007)" /><use
     id="use13830"
     xlink:href="#rect13772"
     x="0"
     y="0"
     width="100%"
     height="100%"
     transform="translate(15.160993,-10.460411)" /><use
     id="use13832"
     xlink:href="#rect13772"
     x="0"
     y="0"
     width="100%"
     height="100%"
     transform="translate(17.856142,6.9668416)" /><use
     id="use13834"
     xlink:href="#rect13772"
     x="0"
     y="0"
     width="100%"
     height="100%"
     transform="translate(12.990955,-3.3158401)" /><use
     id="use13836"
     xlink:href="#rect13772"
     x="0"
     y="0"
     width="100%"
     height="100%"
     transform="translate(6.2203667,-12.67108)" /><use
     id="use13838"
     xlink:href="#rect13772"
     x="0"
     y="0"
     width="100%"
     height="100%"
     transform="translate(7.5716892,-10.761228)" /><use
     id="use13840"
     xlink:href="#rect13772"
     x="0"
     y="0"
     width="100%"
     height="100%"
     transform="translate(7.3158491,-0.82041309)" /><use
     id="use13842"
     xlink:href="#rect13772"
     x="0"
     y="0"
     width="100%"
     height="100%"
     transform="translate(-1.3093759,-10.438417)" /><use
     id="use13844"
     xlink:href="#rect13772"
     x="0"
     y="0"
     width="100%"
     height="100%"
     transform="translate(10.068865,0.55355961)" /><use
     id="use13846"
     xlink:href="#rect13772"
     x="0"
     y="0"
     width="100%"
     height="100%"
     transform="translate(21.677076,-6.6285481)" /><use
     id="use13848"
     xlink:href="#rect13772"
     x="0"
     y="0"
     width="100%"
     height="100%"
     transform="translate(16.718174,-12.258293)" /><use
     id="use13850"
     xlink:href="#rect13772"
     x="0"
     y="0"
     width="100%"
     height="100%"
     transform="translate(23.523403,-12.968236)" /><use
     id="use13852"
     xlink:href="#rect13772"
     x="0"
     y="0"
     width="100%"
     height="100%"
     transform="translate(5.8188549,-2.3687658)" /><use
     id="use13854"
     xlink:href="#rect13772"
     x="0"
     y="0"
     width="100%"
     height="100%"
     transform="translate(3.7698246,13.342434)" /><use
     id="use13856"
     xlink:href="#rect13772"
     x="0"
     y="0"
     width="100%"
     height="100%"
     transform="translate(3.8231119,-10.536226)" /><use
     id="use13858"
     xlink:href="#rect13772"
     x="0"
     y="0"
     width="100%"
     height="100%"
     transform="translate(-12.700344,-7.394104)" /><use
     id="use13860"
     xlink:href="#rect13772"
     x="0"
     y="0"
     width="100%"
     height="100%"
     transform="translate(12.603107,3.7479356)" /><use
     id="use13862"
     xlink:href="#rect13772"
     x="0"
     y="0"
     width="100%"
     height="100%"
     transform="translate(31.213525,2.5538586)" /><use
     id="use13864"
     xlink:href="#rect13772"
     x="0"
     y="0"
     width="100%"
     height="100%"
     transform="translate(29.198787,3.1622786)" /><path
     style="opacity:0;fill:#ffffff"
     id="path13866"
     d="m 35.158179,102.97867 c -3.679423,-0.12971 -7.363946,-0.1448 -11.044355,-0.0482 -0.20964,0.0172 -0.79813,0.17654 -0.62892,0.0516 1.786875,-1.31951 3.565544,-2.69094 5.551239,-3.686449 0.489691,-0.2455 1.094226,0.0542 1.64138,0.0805 1.024983,0.0492 2.050429,0.0893 3.07503,0.1459 10.868459,0.600279 -1.431822,0.003 11.336579,0.592649 9.346552,0.32501 18.696836,0.54016 28.046701,0.74688 0,0 -4.512869,3.25172 -4.512869,3.25172 l 0,0 c -9.188343,-0.52861 -18.383527,-0.88865 -27.585609,-1.07511 -4.522631,-0.0906 -7.4783,-0.17559 -11.898083,-0.1756 -1.107135,0 -2.214296,0.0175 -3.321111,0.0441 -0.621398,0.0149 -2.238505,0.57583 -1.862993,0.0805 3.00985,-3.970199 2.785958,-3.878329 5.083588,-3.634859 3.7246,0.10531 7.453306,0.0703 11.177187,-0.0482 0,0 -5.057764,3.674679 -5.057764,3.674679 z"
     inkscape:connector-curvature="0" /><path
     style="opacity:0;fill:#ffffff"
     id="path13868"
     d="m 45.084844,103.41384 c -7.745297,-0.35967 -15.50427,-0.30542 -23.255689,-0.25213 -2.88956,0.0379 -3.815372,0.0386 -6.520069,0.11099 -0.604122,0.0162 -1.209934,0.008 -1.811991,0.061 -0.210569,0.0183 -0.792845,0.26631 -0.615951,0.15062 6.229216,-4.074039 3.739434,-3.745299 8.465397,-3.42049 10.745213,0.47652 21.5093,0.13292 32.252726,-0.239229 0.942444,-0.0382 4.930333,-0.18304 6.219538,-0.28687 0.472448,-0.038 0.954146,-0.0522 1.410435,-0.18047 0.111891,-0.0315 0.313336,-0.33485 0.213127,-0.27597 -6.607856,3.882859 -3.550302,3.874139 -7.558853,3.436489 -4.080753,-0.33447 -8.177243,-0.39904 -12.269555,-0.42952 0,0 4.81166,-3.480859 4.81166,-3.480859 l 0,0 c 4.115631,0.13958 8.232557,0.24416 12.346838,0.42091 3.630762,0.22537 2.543936,-0.2917 -2.269851,4.019649 -0.048,0.043 -0.115828,-0.0674 -0.180214,-0.0699 -0.41098,-0.0158 -0.822473,0.0147 -1.233757,0.0155 -0.781084,0.001 -1.562154,-0.0102 -2.343238,-0.009 -1.166755,0.002 -2.333482,0.0122 -3.500222,0.0183 -10.865009,0.0997 -21.726921,0.38575 -32.592296,0.45262 -0.977227,0.0114 -3.247344,0.95907 -2.931683,0.0342 1.517306,-4.445819 3.545593,-3.707609 6.283659,-3.628489 2.526264,0.073 3.513377,0.0743 6.214537,0.11099 7.983079,0.0559 15.972104,0.0913 23.949759,-0.25213 0,0 -5.084307,3.693959 -5.084307,3.693959 z"
     inkscape:connector-curvature="0" /><path
     style="opacity:0;fill:#ffffff"
     id="path13870"
     d="m 16.377659,99.307201 c 6.539762,0.27036 13.089063,0.22642 19.632896,0.17677 3.707879,-0.0457 1.958471,-0.0193 5.248272,-0.0761 0,0 -4.771831,3.466939 -4.771831,3.466939 l 0,0 c -3.146716,-0.0571 -1.467145,-0.0306 -5.038767,-0.0761 -6.706224,-0.052 -13.416897,-0.0825 -20.119485,0.17676 0,0 5.048915,-3.668249 5.048915,-3.668249 z"
     inkscape:connector-curvature="0" /><path
     style="opacity:0;fill:#ffffff"
     id="path13872"
     d="m 71.861356,103.35277 c -13.712235,-0.52428 -27.437063,-0.49662 -41.15664,-0.43616 -8.999848,-0.0985 -17.998534,0.38465 -26.9967261,0.34923 0,0 4.8443511,-3.499759 4.8443511,-3.499759 l 0,0 c 8.611812,0.445339 17.24981,0.267079 25.86791,0.451029 14.120002,0.063 28.24397,0.0669 42.357301,-0.436159 0,0 -4.916196,3.571819 -4.916196,3.571819 z"
     inkscape:connector-curvature="0" /></svg>