<?xml version="1.0" encoding="iso-8859-1"?>
<!-- Generator: Adobe Illustrator 18.1.1, SVG Export Plug-In . SVG Version: 6.00 Build 0)  -->
<svg version="1.1" id="Capa_1" xmlns="http://www.w3.org/2000/svg" xmlns:xlink="http://www.w3.org/1999/xlink" x="0px" y="0px"
	 viewBox="0 0 440.346 440.346" style="enable-background:new 0 0 440.346 440.346;" xml:space="preserve">
<g>
	<g id="Layer_1_57_">
		<g>
			<path d="M408.189,7.329c-8.678-7.779-22.02-7.05-29.799,1.628L252.624,149.285l-69.451-55.814
				c-0.08-0.063-0.164-0.122-0.242-0.185l39.061-66.758c4.295-7.328,2.777-16.899-3.982-22.487
				c-7.502-6.201-18.609-5.147-24.813,2.354c0,0-60.244,69.7-63.27,76.529c-7.557,17.047-20.264,26.151-22.902,31.033
				c-2.641,4.883-44.77,82.806-44.77,82.806l-1.418,2.618c-0.557,1.046-1.031,2.15-1.412,3.313
				c-3.582,10.924,2.369,22.685,13.291,26.266l52.852,17.338c7.959,2.618,16.896-0.749,21.018-8.377
				c4.629-8.57,1.436-19.272-7.135-23.901l-25.693-13.879l16.973-26.069l71.061,57.106c1.988,1.597,4.066,2.999,6.209,4.228
				l9.426,184.905c0.582,10.645,9.121,19.451,20.008,20.007c11.643,0.595,21.561-8.363,22.154-20.007l9.988-195.865L410.991,35.694
				C417.435,27.039,416.38,14.669,408.189,7.329z"/>
			<path d="M125.064,77.938c7.141-27.116-9.051-54.892-36.17-62.031c-27.121-7.144-54.893,9.053-62.035,36.17
				c-7.139,27.122,9.051,54.893,36.17,62.032C90.15,121.253,117.921,105.062,125.064,77.938z"/>
		</g>
	</g>
</g>
<g>
</g>
<g>
</g>
<g>
</g>
<g>
</g>
<g>
</g>
<g>
</g>
<g>
</g>
<g>
</g>
<g>
</g>
<g>
</g>
<g>
</g>
<g>
</g>
<g>
</g>
<g>
</g>
<g>
</g>
</svg>
