<?xml version="1.0" encoding="iso-8859-1"?>
<!-- Generator: Adobe Illustrator 18.0.0, SVG Export Plug-In . SVG Version: 6.00 Build 0)  -->
<!DOCTYPE svg PUBLIC "-//W3C//DTD SVG 1.1//EN" "http://www.w3.org/Graphics/SVG/1.1/DTD/svg11.dtd">
<svg version="1.1" id="Capa_1" xmlns="http://www.w3.org/2000/svg" xmlns:xlink="http://www.w3.org/1999/xlink" x="0px" y="0px"
	 viewBox="0 0 459.431 459.431" style="enable-background:new 0 0 459.431 459.431;" xml:space="preserve">
<g id="XMLID_343_">
	<g id="XMLID_347_">
		<circle id="XMLID_350_" cx="280.121" cy="115.374" r="36.171"/>
		<circle id="XMLID_349_" cx="338.535" cy="22.235" r="22.235"/>
	</g>
	<path id="XMLID_344_" d="M388.039,143.923l11.067-81.739c1.111-8.209-4.643-15.766-12.852-16.877
		c-8.209-1.113-15.766,4.643-16.877,12.852l-10.059,74.289l-49.299,27.387l-58.241,14.989l-59.223,25.756l-35.261-19.983
		l-23.364-53.955l2.314-23.679l-0.054,0.023c5.258-12.231,5.062-28.637-1.748-44.363c-11.087-25.603-35.482-39.687-54.487-31.457
		c-19.005,8.23-25.424,35.657-14.337,61.261c6.81,15.726,18.641,27.093,31.159,31.627l-0.054,0.023l18.853,14.513l17.035,39.338
		c-2.704,1.275-5.058,3.358-6.644,6.157c-4.085,7.207-1.554,16.361,5.654,20.446l16.578,9.395l12.18,28.127
		c2.196,5.069,8.082,7.397,13.15,5.203c5.068-2.195,7.398-8.083,5.203-13.15l-1.65-3.811l7.194,4.077
		c2.285,1.296,4.837,1.95,7.396,1.95c2.031,0,4.068-0.413,5.981-1.245l48.718-21.188l22.102,105.008l-11.015,56.823l-33.005,57.787
		c-5.478,9.591-2.144,21.808,7.448,27.286c9.599,5.481,21.812,2.137,27.286-7.448l34.644-60.656c1.085-1.9,1.85-3.965,2.268-6.113
		l13.576-70.032l8.992-1.893l33.542,49.679l-11.765,76.038c-1.69,10.916,5.791,21.134,16.707,22.823
		c10.893,1.689,21.131-5.776,22.822-16.706l12.964-83.788c0.771-4.982-0.368-10.071-3.189-14.25l-29.91-44.3l-25.19-119.678
		l45.809-25.448C384.595,152.725,387.404,148.611,388.039,143.923z M127.187,127.313l-6.333,2.917l-15.354-11.604
		c0,0,13.688,0,23.438-10L127.187,127.313z"/>
</g>
<g>
</g>
<g>
</g>
<g>
</g>
<g>
</g>
<g>
</g>
<g>
</g>
<g>
</g>
<g>
</g>
<g>
</g>
<g>
</g>
<g>
</g>
<g>
</g>
<g>
</g>
<g>
</g>
<g>
</g>
</svg>
